<?xml version="1.0" encoding="utf-8" standalone="no"?>
<!DOCTYPE svg PUBLIC "-//W3C//DTD SVG 1.1//EN"
  "http://www.w3.org/Graphics/SVG/1.1/DTD/svg11.dtd">
<svg xmlns:xlink="http://www.w3.org/1999/xlink" width="864pt" height="432pt" viewBox="0 0 864 432" xmlns="http://www.w3.org/2000/svg" version="1.1">
 <metadata>
  <rdf:RDF xmlns:dc="http://purl.org/dc/elements/1.1/" xmlns:cc="http://creativecommons.org/ns#" xmlns:rdf="http://www.w3.org/1999/02/22-rdf-syntax-ns#">
   <cc:Work>
    <dc:type rdf:resource="http://purl.org/dc/dcmitype/StillImage"/>
    <dc:date>2025-08-09T09:21:27.392529</dc:date>
    <dc:format>image/svg+xml</dc:format>
    <dc:creator>
     <cc:Agent>
      <dc:title>Matplotlib v3.10.5, https://matplotlib.org/</dc:title>
     </cc:Agent>
    </dc:creator>
   </cc:Work>
  </rdf:RDF>
 </metadata>
 <defs>
  <style type="text/css">*{stroke-linejoin: round; stroke-linecap: butt}</style>
 </defs>
 <g id="figure_1">
  <g id="patch_1">
   <path d="M 0 432 
L 864 432 
L 864 0 
L 0 0 
z
" style="fill: #ffffff"/>
  </g>
  <g id="axes_1">
   <g id="patch_2">
    <path d="M 52.94 389.93875 
L 853.2 389.93875 
L 853.2 26.88 
L 52.94 26.88 
z
" style="fill: #ffffff"/>
   </g>
   <g id="matplotlib.axis_1">
    <g id="xtick_1">
     <g id="line2d_1">
      <defs>
       <path id="m16ff4d2762" d="M 0 0 
L 0 3.5 
" style="stroke: #000000; stroke-width: 0.8"/>
      </defs>
      <g>
       <use xlink:href="#m16ff4d2762" x="89.315455" y="389.93875" style="stroke: #000000; stroke-width: 0.8"/>
      </g>
     </g>
     <g id="text_1">
      <!-- 0 -->
      <g transform="translate(86.134205 404.537187) scale(0.1 -0.1)">
       <defs>
        <path id="DejaVuSans-30" d="M 2034 4250 
Q 1547 4250 1301 3770 
Q 1056 3291 1056 2328 
Q 1056 1369 1301 889 
Q 1547 409 2034 409 
Q 2525 409 2770 889 
Q 3016 1369 3016 2328 
Q 3016 3291 2770 3770 
Q 2525 4250 2034 4250 
z
M 2034 4750 
Q 2819 4750 3233 4129 
Q 3647 3509 3647 2328 
Q 3647 1150 3233 529 
Q 2819 -91 2034 -91 
Q 1250 -91 836 529 
Q 422 1150 422 2328 
Q 422 3509 836 4129 
Q 1250 4750 2034 4750 
z
" transform="scale(0.015625)"/>
       </defs>
       <use xlink:href="#DejaVuSans-30"/>
      </g>
     </g>
    </g>
    <g id="xtick_2">
     <g id="line2d_2">
      <g>
       <use xlink:href="#m16ff4d2762" x="192.411085" y="389.93875" style="stroke: #000000; stroke-width: 0.8"/>
      </g>
     </g>
     <g id="text_2">
      <!-- 10 -->
      <g transform="translate(186.048585 404.537187) scale(0.1 -0.1)">
       <defs>
        <path id="DejaVuSans-31" d="M 794 531 
L 1825 531 
L 1825 4091 
L 703 3866 
L 703 4441 
L 1819 4666 
L 2450 4666 
L 2450 531 
L 3481 531 
L 3481 0 
L 794 0 
L 794 531 
z
" transform="scale(0.015625)"/>
       </defs>
       <use xlink:href="#DejaVuSans-31"/>
       <use xlink:href="#DejaVuSans-30" transform="translate(63.623047 0)"/>
      </g>
     </g>
    </g>
    <g id="xtick_3">
     <g id="line2d_3">
      <g>
       <use xlink:href="#m16ff4d2762" x="295.506716" y="389.93875" style="stroke: #000000; stroke-width: 0.8"/>
      </g>
     </g>
     <g id="text_3">
      <!-- 20 -->
      <g transform="translate(289.144216 404.537187) scale(0.1 -0.1)">
       <defs>
        <path id="DejaVuSans-32" d="M 1228 531 
L 3431 531 
L 3431 0 
L 469 0 
L 469 531 
Q 828 903 1448 1529 
Q 2069 2156 2228 2338 
Q 2531 2678 2651 2914 
Q 2772 3150 2772 3378 
Q 2772 3750 2511 3984 
Q 2250 4219 1831 4219 
Q 1534 4219 1204 4116 
Q 875 4013 500 3803 
L 500 4441 
Q 881 4594 1212 4672 
Q 1544 4750 1819 4750 
Q 2544 4750 2975 4387 
Q 3406 4025 3406 3419 
Q 3406 3131 3298 2873 
Q 3191 2616 2906 2266 
Q 2828 2175 2409 1742 
Q 1991 1309 1228 531 
z
" transform="scale(0.015625)"/>
       </defs>
       <use xlink:href="#DejaVuSans-32"/>
       <use xlink:href="#DejaVuSans-30" transform="translate(63.623047 0)"/>
      </g>
     </g>
    </g>
    <g id="xtick_4">
     <g id="line2d_4">
      <g>
       <use xlink:href="#m16ff4d2762" x="398.602347" y="389.93875" style="stroke: #000000; stroke-width: 0.8"/>
      </g>
     </g>
     <g id="text_4">
      <!-- 30 -->
      <g transform="translate(392.239847 404.537187) scale(0.1 -0.1)">
       <defs>
        <path id="DejaVuSans-33" d="M 2597 2516 
Q 3050 2419 3304 2112 
Q 3559 1806 3559 1356 
Q 3559 666 3084 287 
Q 2609 -91 1734 -91 
Q 1441 -91 1130 -33 
Q 819 25 488 141 
L 488 750 
Q 750 597 1062 519 
Q 1375 441 1716 441 
Q 2309 441 2620 675 
Q 2931 909 2931 1356 
Q 2931 1769 2642 2001 
Q 2353 2234 1838 2234 
L 1294 2234 
L 1294 2753 
L 1863 2753 
Q 2328 2753 2575 2939 
Q 2822 3125 2822 3475 
Q 2822 3834 2567 4026 
Q 2313 4219 1838 4219 
Q 1578 4219 1281 4162 
Q 984 4106 628 3988 
L 628 4550 
Q 988 4650 1302 4700 
Q 1616 4750 1894 4750 
Q 2613 4750 3031 4423 
Q 3450 4097 3450 3541 
Q 3450 3153 3228 2886 
Q 3006 2619 2597 2516 
z
" transform="scale(0.015625)"/>
       </defs>
       <use xlink:href="#DejaVuSans-33"/>
       <use xlink:href="#DejaVuSans-30" transform="translate(63.623047 0)"/>
      </g>
     </g>
    </g>
    <g id="xtick_5">
     <g id="line2d_5">
      <g>
       <use xlink:href="#m16ff4d2762" x="501.697977" y="389.93875" style="stroke: #000000; stroke-width: 0.8"/>
      </g>
     </g>
     <g id="text_5">
      <!-- 40 -->
      <g transform="translate(495.335477 404.537187) scale(0.1 -0.1)">
       <defs>
        <path id="DejaVuSans-34" d="M 2419 4116 
L 825 1625 
L 2419 1625 
L 2419 4116 
z
M 2253 4666 
L 3047 4666 
L 3047 1625 
L 3713 1625 
L 3713 1100 
L 3047 1100 
L 3047 0 
L 2419 0 
L 2419 1100 
L 313 1100 
L 313 1709 
L 2253 4666 
z
" transform="scale(0.015625)"/>
       </defs>
       <use xlink:href="#DejaVuSans-34"/>
       <use xlink:href="#DejaVuSans-30" transform="translate(63.623047 0)"/>
      </g>
     </g>
    </g>
    <g id="xtick_6">
     <g id="line2d_6">
      <g>
       <use xlink:href="#m16ff4d2762" x="604.793608" y="389.93875" style="stroke: #000000; stroke-width: 0.8"/>
      </g>
     </g>
     <g id="text_6">
      <!-- 50 -->
      <g transform="translate(598.431108 404.537187) scale(0.1 -0.1)">
       <defs>
        <path id="DejaVuSans-35" d="M 691 4666 
L 3169 4666 
L 3169 4134 
L 1269 4134 
L 1269 2991 
Q 1406 3038 1543 3061 
Q 1681 3084 1819 3084 
Q 2600 3084 3056 2656 
Q 3513 2228 3513 1497 
Q 3513 744 3044 326 
Q 2575 -91 1722 -91 
Q 1428 -91 1123 -41 
Q 819 9 494 109 
L 494 744 
Q 775 591 1075 516 
Q 1375 441 1709 441 
Q 2250 441 2565 725 
Q 2881 1009 2881 1497 
Q 2881 1984 2565 2268 
Q 2250 2553 1709 2553 
Q 1456 2553 1204 2497 
Q 953 2441 691 2322 
L 691 4666 
z
" transform="scale(0.015625)"/>
       </defs>
       <use xlink:href="#DejaVuSans-35"/>
       <use xlink:href="#DejaVuSans-30" transform="translate(63.623047 0)"/>
      </g>
     </g>
    </g>
    <g id="xtick_7">
     <g id="line2d_7">
      <g>
       <use xlink:href="#m16ff4d2762" x="707.889239" y="389.93875" style="stroke: #000000; stroke-width: 0.8"/>
      </g>
     </g>
     <g id="text_7">
      <!-- 60 -->
      <g transform="translate(701.526739 404.537187) scale(0.1 -0.1)">
       <defs>
        <path id="DejaVuSans-36" d="M 2113 2584 
Q 1688 2584 1439 2293 
Q 1191 2003 1191 1497 
Q 1191 994 1439 701 
Q 1688 409 2113 409 
Q 2538 409 2786 701 
Q 3034 994 3034 1497 
Q 3034 2003 2786 2293 
Q 2538 2584 2113 2584 
z
M 3366 4563 
L 3366 3988 
Q 3128 4100 2886 4159 
Q 2644 4219 2406 4219 
Q 1781 4219 1451 3797 
Q 1122 3375 1075 2522 
Q 1259 2794 1537 2939 
Q 1816 3084 2150 3084 
Q 2853 3084 3261 2657 
Q 3669 2231 3669 1497 
Q 3669 778 3244 343 
Q 2819 -91 2113 -91 
Q 1303 -91 875 529 
Q 447 1150 447 2328 
Q 447 3434 972 4092 
Q 1497 4750 2381 4750 
Q 2619 4750 2861 4703 
Q 3103 4656 3366 4563 
z
" transform="scale(0.015625)"/>
       </defs>
       <use xlink:href="#DejaVuSans-36"/>
       <use xlink:href="#DejaVuSans-30" transform="translate(63.623047 0)"/>
      </g>
     </g>
    </g>
    <g id="xtick_8">
     <g id="line2d_8">
      <g>
       <use xlink:href="#m16ff4d2762" x="810.984869" y="389.93875" style="stroke: #000000; stroke-width: 0.8"/>
      </g>
     </g>
     <g id="text_8">
      <!-- 70 -->
      <g transform="translate(804.622369 404.537187) scale(0.1 -0.1)">
       <defs>
        <path id="DejaVuSans-37" d="M 525 4666 
L 3525 4666 
L 3525 4397 
L 1831 0 
L 1172 0 
L 2766 4134 
L 525 4134 
L 525 4666 
z
" transform="scale(0.015625)"/>
       </defs>
       <use xlink:href="#DejaVuSans-37"/>
       <use xlink:href="#DejaVuSans-30" transform="translate(63.623047 0)"/>
      </g>
     </g>
    </g>
    <g id="text_9">
     <!-- received_at [s] -->
     <g transform="translate(416.005938 418.215312) scale(0.1 -0.1)">
      <defs>
       <path id="DejaVuSans-72" d="M 2631 2963 
Q 2534 3019 2420 3045 
Q 2306 3072 2169 3072 
Q 1681 3072 1420 2755 
Q 1159 2438 1159 1844 
L 1159 0 
L 581 0 
L 581 3500 
L 1159 3500 
L 1159 2956 
Q 1341 3275 1631 3429 
Q 1922 3584 2338 3584 
Q 2397 3584 2469 3576 
Q 2541 3569 2628 3553 
L 2631 2963 
z
" transform="scale(0.015625)"/>
       <path id="DejaVuSans-65" d="M 3597 1894 
L 3597 1613 
L 953 1613 
Q 991 1019 1311 708 
Q 1631 397 2203 397 
Q 2534 397 2845 478 
Q 3156 559 3463 722 
L 3463 178 
Q 3153 47 2828 -22 
Q 2503 -91 2169 -91 
Q 1331 -91 842 396 
Q 353 884 353 1716 
Q 353 2575 817 3079 
Q 1281 3584 2069 3584 
Q 2775 3584 3186 3129 
Q 3597 2675 3597 1894 
z
M 3022 2063 
Q 3016 2534 2758 2815 
Q 2500 3097 2075 3097 
Q 1594 3097 1305 2825 
Q 1016 2553 972 2059 
L 3022 2063 
z
" transform="scale(0.015625)"/>
       <path id="DejaVuSans-63" d="M 3122 3366 
L 3122 2828 
Q 2878 2963 2633 3030 
Q 2388 3097 2138 3097 
Q 1578 3097 1268 2742 
Q 959 2388 959 1747 
Q 959 1106 1268 751 
Q 1578 397 2138 397 
Q 2388 397 2633 464 
Q 2878 531 3122 666 
L 3122 134 
Q 2881 22 2623 -34 
Q 2366 -91 2075 -91 
Q 1284 -91 818 406 
Q 353 903 353 1747 
Q 353 2603 823 3093 
Q 1294 3584 2113 3584 
Q 2378 3584 2631 3529 
Q 2884 3475 3122 3366 
z
" transform="scale(0.015625)"/>
       <path id="DejaVuSans-69" d="M 603 3500 
L 1178 3500 
L 1178 0 
L 603 0 
L 603 3500 
z
M 603 4863 
L 1178 4863 
L 1178 4134 
L 603 4134 
L 603 4863 
z
" transform="scale(0.015625)"/>
       <path id="DejaVuSans-76" d="M 191 3500 
L 800 3500 
L 1894 563 
L 2988 3500 
L 3597 3500 
L 2284 0 
L 1503 0 
L 191 3500 
z
" transform="scale(0.015625)"/>
       <path id="DejaVuSans-64" d="M 2906 2969 
L 2906 4863 
L 3481 4863 
L 3481 0 
L 2906 0 
L 2906 525 
Q 2725 213 2448 61 
Q 2172 -91 1784 -91 
Q 1150 -91 751 415 
Q 353 922 353 1747 
Q 353 2572 751 3078 
Q 1150 3584 1784 3584 
Q 2172 3584 2448 3432 
Q 2725 3281 2906 2969 
z
M 947 1747 
Q 947 1113 1208 752 
Q 1469 391 1925 391 
Q 2381 391 2643 752 
Q 2906 1113 2906 1747 
Q 2906 2381 2643 2742 
Q 2381 3103 1925 3103 
Q 1469 3103 1208 2742 
Q 947 2381 947 1747 
z
" transform="scale(0.015625)"/>
       <path id="DejaVuSans-5f" d="M 3263 -1063 
L 3263 -1509 
L -63 -1509 
L -63 -1063 
L 3263 -1063 
z
" transform="scale(0.015625)"/>
       <path id="DejaVuSans-61" d="M 2194 1759 
Q 1497 1759 1228 1600 
Q 959 1441 959 1056 
Q 959 750 1161 570 
Q 1363 391 1709 391 
Q 2188 391 2477 730 
Q 2766 1069 2766 1631 
L 2766 1759 
L 2194 1759 
z
M 3341 1997 
L 3341 0 
L 2766 0 
L 2766 531 
Q 2569 213 2275 61 
Q 1981 -91 1556 -91 
Q 1019 -91 701 211 
Q 384 513 384 1019 
Q 384 1609 779 1909 
Q 1175 2209 1959 2209 
L 2766 2209 
L 2766 2266 
Q 2766 2663 2505 2880 
Q 2244 3097 1772 3097 
Q 1472 3097 1187 3025 
Q 903 2953 641 2809 
L 641 3341 
Q 956 3463 1253 3523 
Q 1550 3584 1831 3584 
Q 2591 3584 2966 3190 
Q 3341 2797 3341 1997 
z
" transform="scale(0.015625)"/>
       <path id="DejaVuSans-74" d="M 1172 4494 
L 1172 3500 
L 2356 3500 
L 2356 3053 
L 1172 3053 
L 1172 1153 
Q 1172 725 1289 603 
Q 1406 481 1766 481 
L 2356 481 
L 2356 0 
L 1766 0 
Q 1100 0 847 248 
Q 594 497 594 1153 
L 594 3053 
L 172 3053 
L 172 3500 
L 594 3500 
L 594 4494 
L 1172 4494 
z
" transform="scale(0.015625)"/>
       <path id="DejaVuSans-20" transform="scale(0.015625)"/>
       <path id="DejaVuSans-5b" d="M 550 4863 
L 1875 4863 
L 1875 4416 
L 1125 4416 
L 1125 -397 
L 1875 -397 
L 1875 -844 
L 550 -844 
L 550 4863 
z
" transform="scale(0.015625)"/>
       <path id="DejaVuSans-73" d="M 2834 3397 
L 2834 2853 
Q 2591 2978 2328 3040 
Q 2066 3103 1784 3103 
Q 1356 3103 1142 2972 
Q 928 2841 928 2578 
Q 928 2378 1081 2264 
Q 1234 2150 1697 2047 
L 1894 2003 
Q 2506 1872 2764 1633 
Q 3022 1394 3022 966 
Q 3022 478 2636 193 
Q 2250 -91 1575 -91 
Q 1294 -91 989 -36 
Q 684 19 347 128 
L 347 722 
Q 666 556 975 473 
Q 1284 391 1588 391 
Q 1994 391 2212 530 
Q 2431 669 2431 922 
Q 2431 1156 2273 1281 
Q 2116 1406 1581 1522 
L 1381 1569 
Q 847 1681 609 1914 
Q 372 2147 372 2553 
Q 372 3047 722 3315 
Q 1072 3584 1716 3584 
Q 2034 3584 2315 3537 
Q 2597 3491 2834 3397 
z
" transform="scale(0.015625)"/>
       <path id="DejaVuSans-5d" d="M 1947 4863 
L 1947 -844 
L 622 -844 
L 622 -397 
L 1369 -397 
L 1369 4416 
L 622 4416 
L 622 4863 
L 1947 4863 
z
" transform="scale(0.015625)"/>
      </defs>
      <use xlink:href="#DejaVuSans-72"/>
      <use xlink:href="#DejaVuSans-65" transform="translate(38.863281 0)"/>
      <use xlink:href="#DejaVuSans-63" transform="translate(100.386719 0)"/>
      <use xlink:href="#DejaVuSans-65" transform="translate(155.367188 0)"/>
      <use xlink:href="#DejaVuSans-69" transform="translate(216.890625 0)"/>
      <use xlink:href="#DejaVuSans-76" transform="translate(244.673828 0)"/>
      <use xlink:href="#DejaVuSans-65" transform="translate(303.853516 0)"/>
      <use xlink:href="#DejaVuSans-64" transform="translate(365.376953 0)"/>
      <use xlink:href="#DejaVuSans-5f" transform="translate(428.853516 0)"/>
      <use xlink:href="#DejaVuSans-61" transform="translate(478.853516 0)"/>
      <use xlink:href="#DejaVuSans-74" transform="translate(540.132812 0)"/>
      <use xlink:href="#DejaVuSans-20" transform="translate(579.341797 0)"/>
      <use xlink:href="#DejaVuSans-5b" transform="translate(611.128906 0)"/>
      <use xlink:href="#DejaVuSans-73" transform="translate(650.142578 0)"/>
      <use xlink:href="#DejaVuSans-5d" transform="translate(702.242188 0)"/>
     </g>
    </g>
   </g>
   <g id="matplotlib.axis_2">
    <g id="ytick_1">
     <g id="line2d_9">
      <defs>
       <path id="m82950c5b6c" d="M 0 0 
L -3.5 0 
" style="stroke: #000000; stroke-width: 0.8"/>
      </defs>
      <g>
       <use xlink:href="#m82950c5b6c" x="52.94" y="389.93875" style="stroke: #000000; stroke-width: 0.8"/>
      </g>
     </g>
     <g id="text_10">
      <!-- −30 -->
      <g transform="translate(24.835313 393.737969) scale(0.1 -0.1)">
       <defs>
        <path id="DejaVuSans-2212" d="M 678 2272 
L 4684 2272 
L 4684 1741 
L 678 1741 
L 678 2272 
z
" transform="scale(0.015625)"/>
       </defs>
       <use xlink:href="#DejaVuSans-2212"/>
       <use xlink:href="#DejaVuSans-33" transform="translate(83.789062 0)"/>
       <use xlink:href="#DejaVuSans-30" transform="translate(147.412109 0)"/>
      </g>
     </g>
    </g>
    <g id="ytick_2">
     <g id="line2d_10">
      <g>
       <use xlink:href="#m82950c5b6c" x="52.94" y="329.428958" style="stroke: #000000; stroke-width: 0.8"/>
      </g>
     </g>
     <g id="text_11">
      <!-- −20 -->
      <g transform="translate(24.835313 333.228177) scale(0.1 -0.1)">
       <use xlink:href="#DejaVuSans-2212"/>
       <use xlink:href="#DejaVuSans-32" transform="translate(83.789062 0)"/>
       <use xlink:href="#DejaVuSans-30" transform="translate(147.412109 0)"/>
      </g>
     </g>
    </g>
    <g id="ytick_3">
     <g id="line2d_11">
      <g>
       <use xlink:href="#m82950c5b6c" x="52.94" y="268.919167" style="stroke: #000000; stroke-width: 0.8"/>
      </g>
     </g>
     <g id="text_12">
      <!-- −10 -->
      <g transform="translate(24.835313 272.718385) scale(0.1 -0.1)">
       <use xlink:href="#DejaVuSans-2212"/>
       <use xlink:href="#DejaVuSans-31" transform="translate(83.789062 0)"/>
       <use xlink:href="#DejaVuSans-30" transform="translate(147.412109 0)"/>
      </g>
     </g>
    </g>
    <g id="ytick_4">
     <g id="line2d_12">
      <g>
       <use xlink:href="#m82950c5b6c" x="52.94" y="208.409375" style="stroke: #000000; stroke-width: 0.8"/>
      </g>
     </g>
     <g id="text_13">
      <!-- 0 -->
      <g transform="translate(39.5775 212.208594) scale(0.1 -0.1)">
       <use xlink:href="#DejaVuSans-30"/>
      </g>
     </g>
    </g>
    <g id="ytick_5">
     <g id="line2d_13">
      <g>
       <use xlink:href="#m82950c5b6c" x="52.94" y="147.899583" style="stroke: #000000; stroke-width: 0.8"/>
      </g>
     </g>
     <g id="text_14">
      <!-- 10 -->
      <g transform="translate(33.215 151.698802) scale(0.1 -0.1)">
       <use xlink:href="#DejaVuSans-31"/>
       <use xlink:href="#DejaVuSans-30" transform="translate(63.623047 0)"/>
      </g>
     </g>
    </g>
    <g id="ytick_6">
     <g id="line2d_14">
      <g>
       <use xlink:href="#m82950c5b6c" x="52.94" y="87.389792" style="stroke: #000000; stroke-width: 0.8"/>
      </g>
     </g>
     <g id="text_15">
      <!-- 20 -->
      <g transform="translate(33.215 91.18901) scale(0.1 -0.1)">
       <use xlink:href="#DejaVuSans-32"/>
       <use xlink:href="#DejaVuSans-30" transform="translate(63.623047 0)"/>
      </g>
     </g>
    </g>
    <g id="ytick_7">
     <g id="line2d_15">
      <g>
       <use xlink:href="#m82950c5b6c" x="52.94" y="26.88" style="stroke: #000000; stroke-width: 0.8"/>
      </g>
     </g>
     <g id="text_16">
      <!-- 30 -->
      <g transform="translate(33.215 30.679219) scale(0.1 -0.1)">
       <use xlink:href="#DejaVuSans-33"/>
       <use xlink:href="#DejaVuSans-30" transform="translate(63.623047 0)"/>
      </g>
     </g>
    </g>
    <g id="text_17">
     <!-- Angular Velocity [deg/s] -->
     <g transform="translate(18.755625 268.259375) rotate(-90) scale(0.1 -0.1)">
      <defs>
       <path id="DejaVuSans-41" d="M 2188 4044 
L 1331 1722 
L 3047 1722 
L 2188 4044 
z
M 1831 4666 
L 2547 4666 
L 4325 0 
L 3669 0 
L 3244 1197 
L 1141 1197 
L 716 0 
L 50 0 
L 1831 4666 
z
" transform="scale(0.015625)"/>
       <path id="DejaVuSans-6e" d="M 3513 2113 
L 3513 0 
L 2938 0 
L 2938 2094 
Q 2938 2591 2744 2837 
Q 2550 3084 2163 3084 
Q 1697 3084 1428 2787 
Q 1159 2491 1159 1978 
L 1159 0 
L 581 0 
L 581 3500 
L 1159 3500 
L 1159 2956 
Q 1366 3272 1645 3428 
Q 1925 3584 2291 3584 
Q 2894 3584 3203 3211 
Q 3513 2838 3513 2113 
z
" transform="scale(0.015625)"/>
       <path id="DejaVuSans-67" d="M 2906 1791 
Q 2906 2416 2648 2759 
Q 2391 3103 1925 3103 
Q 1463 3103 1205 2759 
Q 947 2416 947 1791 
Q 947 1169 1205 825 
Q 1463 481 1925 481 
Q 2391 481 2648 825 
Q 2906 1169 2906 1791 
z
M 3481 434 
Q 3481 -459 3084 -895 
Q 2688 -1331 1869 -1331 
Q 1566 -1331 1297 -1286 
Q 1028 -1241 775 -1147 
L 775 -588 
Q 1028 -725 1275 -790 
Q 1522 -856 1778 -856 
Q 2344 -856 2625 -561 
Q 2906 -266 2906 331 
L 2906 616 
Q 2728 306 2450 153 
Q 2172 0 1784 0 
Q 1141 0 747 490 
Q 353 981 353 1791 
Q 353 2603 747 3093 
Q 1141 3584 1784 3584 
Q 2172 3584 2450 3431 
Q 2728 3278 2906 2969 
L 2906 3500 
L 3481 3500 
L 3481 434 
z
" transform="scale(0.015625)"/>
       <path id="DejaVuSans-75" d="M 544 1381 
L 544 3500 
L 1119 3500 
L 1119 1403 
Q 1119 906 1312 657 
Q 1506 409 1894 409 
Q 2359 409 2629 706 
Q 2900 1003 2900 1516 
L 2900 3500 
L 3475 3500 
L 3475 0 
L 2900 0 
L 2900 538 
Q 2691 219 2414 64 
Q 2138 -91 1772 -91 
Q 1169 -91 856 284 
Q 544 659 544 1381 
z
M 1991 3584 
L 1991 3584 
z
" transform="scale(0.015625)"/>
       <path id="DejaVuSans-6c" d="M 603 4863 
L 1178 4863 
L 1178 0 
L 603 0 
L 603 4863 
z
" transform="scale(0.015625)"/>
       <path id="DejaVuSans-56" d="M 1831 0 
L 50 4666 
L 709 4666 
L 2188 738 
L 3669 4666 
L 4325 4666 
L 2547 0 
L 1831 0 
z
" transform="scale(0.015625)"/>
       <path id="DejaVuSans-6f" d="M 1959 3097 
Q 1497 3097 1228 2736 
Q 959 2375 959 1747 
Q 959 1119 1226 758 
Q 1494 397 1959 397 
Q 2419 397 2687 759 
Q 2956 1122 2956 1747 
Q 2956 2369 2687 2733 
Q 2419 3097 1959 3097 
z
M 1959 3584 
Q 2709 3584 3137 3096 
Q 3566 2609 3566 1747 
Q 3566 888 3137 398 
Q 2709 -91 1959 -91 
Q 1206 -91 779 398 
Q 353 888 353 1747 
Q 353 2609 779 3096 
Q 1206 3584 1959 3584 
z
" transform="scale(0.015625)"/>
       <path id="DejaVuSans-79" d="M 2059 -325 
Q 1816 -950 1584 -1140 
Q 1353 -1331 966 -1331 
L 506 -1331 
L 506 -850 
L 844 -850 
Q 1081 -850 1212 -737 
Q 1344 -625 1503 -206 
L 1606 56 
L 191 3500 
L 800 3500 
L 1894 763 
L 2988 3500 
L 3597 3500 
L 2059 -325 
z
" transform="scale(0.015625)"/>
       <path id="DejaVuSans-2f" d="M 1625 4666 
L 2156 4666 
L 531 -594 
L 0 -594 
L 1625 4666 
z
" transform="scale(0.015625)"/>
      </defs>
      <use xlink:href="#DejaVuSans-41"/>
      <use xlink:href="#DejaVuSans-6e" transform="translate(68.408203 0)"/>
      <use xlink:href="#DejaVuSans-67" transform="translate(131.787109 0)"/>
      <use xlink:href="#DejaVuSans-75" transform="translate(195.263672 0)"/>
      <use xlink:href="#DejaVuSans-6c" transform="translate(258.642578 0)"/>
      <use xlink:href="#DejaVuSans-61" transform="translate(286.425781 0)"/>
      <use xlink:href="#DejaVuSans-72" transform="translate(347.705078 0)"/>
      <use xlink:href="#DejaVuSans-20" transform="translate(388.818359 0)"/>
      <use xlink:href="#DejaVuSans-56" transform="translate(420.605469 0)"/>
      <use xlink:href="#DejaVuSans-65" transform="translate(481.263672 0)"/>
      <use xlink:href="#DejaVuSans-6c" transform="translate(542.787109 0)"/>
      <use xlink:href="#DejaVuSans-6f" transform="translate(570.570312 0)"/>
      <use xlink:href="#DejaVuSans-63" transform="translate(631.751953 0)"/>
      <use xlink:href="#DejaVuSans-69" transform="translate(686.732422 0)"/>
      <use xlink:href="#DejaVuSans-74" transform="translate(714.515625 0)"/>
      <use xlink:href="#DejaVuSans-79" transform="translate(753.724609 0)"/>
      <use xlink:href="#DejaVuSans-20" transform="translate(812.904297 0)"/>
      <use xlink:href="#DejaVuSans-5b" transform="translate(844.691406 0)"/>
      <use xlink:href="#DejaVuSans-64" transform="translate(883.705078 0)"/>
      <use xlink:href="#DejaVuSans-65" transform="translate(947.181641 0)"/>
      <use xlink:href="#DejaVuSans-67" transform="translate(1008.705078 0)"/>
      <use xlink:href="#DejaVuSans-2f" transform="translate(1072.181641 0)"/>
      <use xlink:href="#DejaVuSans-73" transform="translate(1105.873047 0)"/>
      <use xlink:href="#DejaVuSans-5d" transform="translate(1157.972656 0)"/>
     </g>
    </g>
   </g>
   <g id="line2d_16">
    <path d="M 89.315455 208.409375 
L 816.824545 208.409375 
L 816.824545 208.409375 
" clip-path="url(#p6ea95440e2)" style="fill: none; stroke: #1f77b4; stroke-width: 1.5; stroke-linecap: square"/>
   </g>
   <g id="line2d_17">
    <path d="M 89.315455 209.516704 
L 90.236223 208.409375 
L 90.764204 208.778485 
L 91.096245 208.778485 
L 91.432636 208.409375 
L 91.759079 209.516704 
L 93.261037 208.409375 
L 94.206806 208.778485 
L 95.077171 208.778485 
L 95.387807 209.147594 
L 95.611794 208.778485 
L 95.848727 209.147594 
L 96.762453 208.409375 
L 96.985304 209.516704 
L 98.804449 208.409375 
L 116.865204 208.409375 
L 117.823654 209.147594 
L 118.241862 208.778485 
L 118.405411 209.516704 
L 118.733875 208.409375 
L 119.121464 208.778485 
L 119.548372 209.516704 
L 119.835628 208.778485 
L 120.210688 208.409375 
L 120.69595 208.778485 
L 121.069786 208.409375 
L 121.323195 208.778485 
L 121.687307 208.778485 
L 122.193825 209.516704 
L 122.521082 209.147594 
L 122.903216 208.409375 
L 123.429612 208.778485 
L 123.591586 208.409375 
L 124.099127 209.147594 
L 124.294813 209.147594 
L 124.787805 208.778485 
L 125.128834 208.778485 
L 125.476268 209.147594 
L 170.84915 208.778485 
L 171.058927 208.409375 
L 171.362494 208.409375 
L 193.954962 208.778485 
L 194.263877 209.147594 
L 194.651766 208.409375 
L 195.007466 208.778485 
L 196.119735 208.778485 
L 196.492002 208.040265 
L 196.8659 208.040265 
L 197.238229 208.409375 
L 197.977507 208.040265 
L 198.377569 209.147594 
L 198.724714 208.778485 
L 200.951991 208.778485 
L 201.316971 208.409375 
L 202.131446 210.254924 
L 202.483238 209.147594 
L 204.788384 207.671156 
L 205.038301 209.516704 
L 205.401742 209.516704 
L 205.778527 207.671156 
L 206.133422 208.409375 
L 206.549321 210.254924 
L 206.898526 208.040265 
L 207.253381 209.516704 
L 207.631558 207.302046 
L 208.029888 208.409375 
L 208.376432 208.040265 
L 208.761165 208.778485 
L 209.123401 209.147594 
L 209.758667 208.409375 
L 210.222236 208.778485 
L 210.575833 208.040265 
L 210.861553 208.040265 
L 211.23411 208.409375 
L 211.634564 208.409375 
L 211.969202 208.778485 
L 212.37479 208.040265 
L 213.154451 208.778485 
L 214.065775 209.147594 
L 214.224522 209.147594 
L 214.972007 208.409375 
L 215.328954 209.147594 
L 215.678449 208.409375 
L 216.129802 208.778485 
L 216.805541 209.147594 
L 217.184531 208.778485 
L 217.538563 208.040265 
L 217.929873 209.516704 
L 218.27645 209.147594 
L 218.663665 208.409375 
L 219.120782 208.778485 
L 219.413873 208.040265 
L 221.614881 208.778485 
L 221.977386 208.040265 
L 222.385469 209.885814 
L 222.78681 208.409375 
L 223.129129 210.624033 
L 223.474345 209.516704 
L 223.844407 209.516704 
L 224.323121 206.194717 
L 224.60113 205.456497 
L 225.749388 211.731363 
L 226.0709 208.040265 
L 226.521202 209.885814 
L 226.833684 206.932936 
L 227.198602 208.778485 
L 228.309014 208.778485 
L 230.90556 209.516704 
L 231.683964 208.778485 
L 232.038333 209.516704 
L 232.75161 209.147594 
L 233.204942 204.718278 
L 234.47669 207.671156 
L 234.854422 209.516704 
L 235.200957 209.147594 
L 237.574477 208.778485 
L 237.974033 208.778485 
L 238.509308 208.409375 
L 238.722509 208.778485 
L 239.517283 209.147594 
L 239.715867 208.778485 
L 240.01571 208.778485 
L 240.180786 208.040265 
L 240.760884 208.778485 
L 241.010685 208.778485 
L 241.291702 209.147594 
L 260.31465 209.516704 
L 260.803921 208.409375 
L 261.019423 208.778485 
L 261.605295 208.778485 
L 261.81533 209.147594 
L 262.001614 208.778485 
L 262.357315 208.778485 
L 262.72582 208.409375 
L 263.470077 209.147594 
L 264.328998 208.409375 
L 265.308635 208.409375 
L 265.680138 208.778485 
L 266.063511 208.409375 
L 266.800953 209.147594 
L 266.993753 208.778485 
L 267.26776 208.778485 
L 267.917849 208.040265 
L 268.28452 209.147594 
L 269.024563 208.040265 
L 269.315517 209.147594 
L 269.764479 208.778485 
L 270.135705 209.147594 
L 271.640325 209.147594 
L 272.004902 209.516704 
L 272.392674 208.778485 
L 296.677666 209.147594 
L 297.022468 208.040265 
L 297.888328 206.563826 
L 298.427014 206.194717 
L 298.72269 209.516704 
L 298.983636 196.960922 
L 316.157029 208.778485 
L 316.890801 208.409375 
L 318.29749 208.778485 
L 319.234525 208.409375 
L 320.144788 208.778485 
L 320.911438 208.778485 
L 323.759424 208.040265 
L 324.130475 208.778485 
L 324.616147 208.778485 
L 324.89992 208.409375 
L 325.315733 208.409375 
L 325.982886 209.147594 
L 326.354867 208.409375 
L 326.734012 209.147594 
L 343.794121 210.254924 
L 344.56637 211.731363 
L 344.971998 204.349168 
L 345.301905 208.778485 
L 345.706679 208.040265 
L 346.390564 209.516704 
L 346.823979 209.516704 
L 347.140141 208.778485 
L 347.541946 209.516704 
L 348.266213 207.302046 
L 348.621162 209.147594 
L 349.077266 209.147594 
L 349.358222 207.302046 
L 349.730967 209.147594 
L 350.116048 208.409375 
L 350.473069 209.147594 
L 350.844243 208.409375 
L 351.225718 208.778485 
L 351.590078 208.040265 
L 352.034668 209.147594 
L 352.338812 208.409375 
L 352.808689 208.778485 
L 353.094089 208.409375 
L 353.442315 208.409375 
L 353.815873 207.302046 
L 354.257638 206.563826 
L 354.575439 211.731363 
L 354.945718 209.516704 
L 359.115843 209.147594 
L 362.93931 210.254924 
L 363.197286 208.040265 
L 363.447407 208.778485 
L 363.97106 208.040265 
L 364.156859 208.040265 
L 364.461775 206.932936 
L 364.933695 208.778485 
L 365.20563 209.147594 
L 365.611115 206.563826 
L 366.383571 209.885814 
L 366.601958 207.302046 
L 366.754951 209.147594 
L 367.330298 208.778485 
L 367.578253 207.302046 
L 368.162412 208.778485 
L 369.346465 209.147594 
L 369.553018 208.040265 
L 370.607088 207.671156 
L 370.901799 209.516704 
L 371.133659 208.778485 
L 371.416483 209.885814 
L 371.693995 208.409375 
L 372.000344 208.778485 
L 373.646719 208.778485 
L 373.869015 208.409375 
L 374.112597 208.778485 
L 374.526279 208.409375 
L 374.855906 208.778485 
L 375.379932 208.409375 
L 375.610516 208.040265 
L 375.983804 208.409375 
L 376.683184 208.778485 
L 377.787638 208.778485 
L 378.034202 208.409375 
L 378.198948 208.778485 
L 378.439232 208.409375 
L 378.714591 208.778485 
L 379.865747 208.778485 
L 380.091887 208.040265 
L 380.425854 208.778485 
L 381.03752 208.040265 
L 381.179514 209.147594 
L 381.590424 210.254924 
L 382.28369 208.040265 
L 390.837102 209.147594 
L 391.190802 208.409375 
L 391.943781 207.671156 
L 392.739133 208.778485 
L 394.277968 213.952072 
L 394.401457 -1 
M 395.275333 -1 
L 395.338648 199.544691 
L 395.690131 183.297811 
L 396.135236 191.418225 
L 396.692593 210.254924 
L 397.071325 208.040265 
L 397.425994 206.932936 
L 397.76689 206.932936 
L 398.131653 208.778485 
L 398.54888 212.100472 
L 398.921984 209.885814 
L 399.297798 215.428511 
L 399.61822 205.456497 
L 400.369674 203.241839 
L 401.856715 209.147594 
L 402.582024 205.456497 
L 403.386694 211.362253 
L 404.076746 207.671156 
L 404.34869 207.671156 
L 404.526396 208.778485 
L 405.191044 209.147594 
L 405.924909 208.778485 
L 406.417604 209.147594 
L 407.044859 209.147594 
L 407.770743 209.516704 
L 408.19193 208.409375 
L 408.895217 208.040265 
L 409.675209 205.825607 
L 410.016826 208.409375 
L 429.412755 208.778485 
L 430.477402 209.516704 
L 430.881948 208.040265 
L 431.569824 209.147594 
L 431.96065 208.409375 
L 432.299371 208.040265 
L 432.670699 208.778485 
L 433.043709 208.409375 
L 433.442349 208.409375 
L 434.066615 209.147594 
L 435.099529 208.778485 
L 435.289657 209.147594 
L 435.538408 209.885814 
L 435.722001 208.778485 
L 436.676439 209.516704 
L 439.921828 207.302046 
L 464.83697 208.409375 
L 465.583278 206.563826 
L 465.95164 206.932936 
L 484.777944 209.147594 
L 485.162664 207.302046 
L 486.39146 208.409375 
L 486.840164 209.147594 
L 487.01815 208.778485 
L 487.839728 208.778485 
L 488.170965 208.409375 
L 488.519614 208.778485 
L 488.864168 208.409375 
L 489.299561 208.409375 
L 489.60125 208.778485 
L 489.980509 209.885814 
L 490.346354 208.040265 
L 490.739922 208.040265 
L 491.087138 207.671156 
L 491.453735 209.147594 
L 491.864426 208.778485 
L 492.570003 211.362253 
L 492.936229 208.778485 
L 518.086428 208.409375 
L 520.696306 209.147594 
L 521.41883 208.409375 
L 522.193914 209.147594 
L 522.604514 208.778485 
L 524.153887 208.778485 
L 524.416882 207.671156 
L 524.824245 209.147594 
L 525.159038 201.759349 
L 525.879573 208.409375 
L 534.408108 209.147594 
L 535.340009 211.731363 
L 535.587944 208.409375 
L 536.64357 206.932936 
L 537.866224 209.147594 
L 538.129209 207.671156 
L 538.74197 206.563826 
L 538.925975 208.778485 
L 539.239364 208.778485 
L 539.98518 206.932936 
L 540.435233 206.563826 
L 540.739879 209.516704 
L 541.097704 210.254924 
L 541.465436 211.362253 
L 541.852818 211.362253 
L 542.286541 210.624033 
L 542.691871 208.040265 
L 542.949714 207.302046 
L 543.521905 208.040265 
L 545.071917 208.040265 
L 545.348347 208.409375 
L 545.664615 208.040265 
L 545.871167 208.778485 
L 546.124348 209.147594 
L 546.545689 209.147594 
L 546.772077 208.409375 
L 546.994125 208.778485 
L 547.822262 208.040265 
L 548.406946 209.885814 
L 548.793547 208.778485 
L 549.160803 209.147594 
L 549.560465 209.147594 
L 550.262669 208.778485 
L 550.697876 209.147594 
L 551.094268 208.778485 
L 551.391081 209.147594 
L 551.756061 208.409375 
L 552.120133 208.040265 
L 552.491359 208.409375 
L 552.917122 208.409375 
L 553.227906 208.778485 
L 553.631803 208.778485 
L 553.973029 208.409375 
L 554.955562 208.409375 
L 555.204662 208.778485 
L 556.221009 208.778485 
L 557.331483 209.147594 
L 559.182761 208.778485 
L 559.573235 209.147594 
L 559.910349 208.409375 
L 560.749998 210.624033 
L 561.479267 209.885814 
L 561.903507 209.147594 
L 562.507801 208.409375 
L 568.841541 206.563826 
L 569.388361 208.409375 
L 569.948006 205.825607 
L 570.314593 211.362253 
L 571.049924 206.563826 
L 571.420377 210.624033 
L 571.824933 208.040265 
L 582.577716 208.778485 
L 583.13398 208.040265 
L 583.623199 209.147594 
L 583.939898 209.147594 
L 584.350363 206.194717 
L 584.689546 208.778485 
L 585.035032 208.040265 
L 585.778609 208.778485 
L 587.28567 207.302046 
L 588.715051 209.147594 
L 589.093864 208.040265 
L 589.345965 208.409375 
L 589.52768 208.040265 
L 610.672956 208.778485 
L 611.02249 208.040265 
L 611.404614 209.147594 
L 611.788987 209.147594 
L 612.141419 208.040265 
L 612.500202 208.409375 
L 612.874626 209.147594 
L 613.243789 209.516704 
L 613.642047 207.671156 
L 614.346459 208.778485 
L 614.63089 208.778485 
L 614.815421 208.409375 
L 615.151006 208.778485 
L 615.820521 208.409375 
L 616.272408 209.147594 
L 616.588016 208.778485 
L 617.785594 208.778485 
L 618.072511 208.040265 
L 618.506307 209.147594 
L 618.823191 208.409375 
L 619.239562 208.778485 
L 652.913071 208.409375 
L 653.279958 208.778485 
L 653.623172 208.040265 
L 654.036287 208.778485 
L 654.433619 208.409375 
L 655.509491 208.409375 
L 656.334391 207.302046 
L 656.668823 208.409375 
L 656.989512 207.671156 
L 657.360359 208.409375 
L 675.489601 210.993143 
L 676.539434 208.778485 
L 676.906928 208.409375 
L 677.286041 207.671156 
L 677.643465 209.147594 
L 678.023331 208.409375 
L 678.803333 208.409375 
L 679.162477 208.778485 
L 679.519363 209.516704 
L 679.91362 208.778485 
L 680.256084 209.147594 
L 680.664887 208.409375 
L 681.033394 209.147594 
L 681.407857 208.409375 
L 681.851633 209.147594 
L 682.119495 208.409375 
L 682.486824 208.040265 
L 682.857578 208.040265 
L 683.226825 208.778485 
L 683.617237 207.302046 
L 683.971825 208.409375 
L 684.700351 209.147594 
L 708.009614 208.778485 
L 708.397994 208.409375 
L 708.828501 208.778485 
L 709.089869 208.409375 
L 709.461262 209.147594 
L 711.698673 208.040265 
L 712.068239 208.778485 
L 712.486066 208.409375 
L 712.812777 209.885814 
L 713.204384 208.778485 
L 713.571168 209.147594 
L 713.945262 209.147594 
L 714.331467 208.409375 
L 714.71818 208.040265 
L 715.083406 208.409375 
L 715.455757 206.932936 
L 715.835416 208.409375 
L 716.616789 208.778485 
L 716.896415 207.302046 
L 717.320704 207.671156 
L 717.874762 208.409375 
L 718.175512 210.993143 
L 718.529873 205.456497 
L 718.836623 210.254924 
L 719.122436 207.671156 
L 726.938662 205.456497 
L 727.311497 209.147594 
L 727.688032 208.778485 
L 728.269214 210.254924 
L 728.499735 209.147594 
L 728.778402 208.409375 
L 729.541847 208.040265 
L 729.923352 208.040265 
L 730.5624 207.671156 
L 730.763633 210.254924 
L 731.031053 210.254924 
L 731.538726 204.718278 
L 732.280189 211.362253 
L 733.887637 205.825607 
L 734.688876 208.040265 
L 734.999441 207.302046 
L 735.361977 207.671156 
L 736.904173 208.040265 
L 737.041692 208.409375 
L 738.332892 209.147594 
L 738.96156 208.040265 
L 740.968503 208.040265 
L 741.470661 208.778485 
L 742.265558 208.409375 
L 742.828151 209.147594 
L 743.409094 209.147594 
L 743.579689 207.671156 
L 744.166775 208.040265 
L 744.799413 209.147594 
L 745.293848 208.778485 
L 745.549557 208.409375 
L 749.154337 208.778485 
L 749.492387 209.516704 
L 750.279873 207.671156 
L 751.365131 209.516704 
L 751.827213 207.671156 
L 752.480469 211.362253 
L 753.222377 207.302046 
L 755.67598 208.409375 
L 755.958463 210.254924 
L 769.557241 208.409375 
L 769.981962 209.147594 
L 770.555237 206.932936 
L 770.936022 207.671156 
L 771.343269 209.147594 
L 771.641927 209.147594 
L 772.094621 208.409375 
L 776.329241 208.778485 
L 776.644127 208.409375 
L 776.874091 208.778485 
L 777.263381 208.409375 
L 778.319019 208.778485 
L 778.730246 208.409375 
L 780.176162 208.409375 
L 780.595473 209.147594 
L 782.411543 209.147594 
L 782.798131 208.409375 
L 784.311236 208.409375 
L 786.857481 208.778485 
L 787.23074 209.147594 
L 787.611677 209.147594 
L 788.108186 208.409375 
L 788.338212 209.147594 
L 789.094305 208.409375 
L 789.919689 208.409375 
L 790.56616 208.778485 
L 790.954727 208.409375 
L 791.718678 208.778485 
L 792.159669 208.040265 
L 792.48914 209.147594 
L 793.567584 208.778485 
L 793.697164 209.516704 
L 793.928181 208.778485 
L 794.339863 210.254924 
L 795.441677 208.409375 
L 796.142829 209.147594 
L 796.504707 208.409375 
L 797.331337 209.147594 
L 797.620006 208.778485 
L 797.993903 208.778485 
L 798.465419 208.409375 
L 798.795358 207.671156 
L 799.733785 208.040265 
L 799.95407 208.778485 
L 800.992006 208.778485 
L 802.107531 208.409375 
L 802.858819 209.147594 
L 804.378821 208.778485 
L 805.503521 208.778485 
L 805.789034 209.147594 
L 806.5928 208.778485 
L 806.930189 208.778485 
L 807.535422 209.147594 
L 807.910608 208.409375 
L 808.294278 208.778485 
L 808.714506 208.778485 
L 809.015785 208.040265 
L 811.650764 208.040265 
L 811.987009 208.409375 
L 812.933624 208.409375 
L 813.116112 208.040265 
L 813.481608 208.778485 
L 814.631196 208.040265 
L 814.950484 208.778485 
L 815.099178 208.409375 
L 815.558614 208.778485 
L 815.693245 208.409375 
L 816.535218 208.778485 
L 816.824545 208.409375 
L 816.824545 208.409375 
" clip-path="url(#p6ea95440e2)" style="fill: none; stroke: #ff7f0e; stroke-width: 1.5; stroke-linecap: square"/>
   </g>
   <g id="patch_3">
    <path d="M 52.94 389.93875 
L 52.94 26.88 
" style="fill: none; stroke: #000000; stroke-width: 0.8; stroke-linejoin: miter; stroke-linecap: square"/>
   </g>
   <g id="patch_4">
    <path d="M 853.2 389.93875 
L 853.2 26.88 
" style="fill: none; stroke: #000000; stroke-width: 0.8; stroke-linejoin: miter; stroke-linecap: square"/>
   </g>
   <g id="patch_5">
    <path d="M 52.94 389.93875 
L 853.2 389.93875 
" style="fill: none; stroke: #000000; stroke-width: 0.8; stroke-linejoin: miter; stroke-linecap: square"/>
   </g>
   <g id="patch_6">
    <path d="M 52.94 26.88 
L 853.2 26.88 
" style="fill: none; stroke: #000000; stroke-width: 0.8; stroke-linejoin: miter; stroke-linecap: square"/>
   </g>
   <g id="text_18">
    <!-- Stone Data (Gyro) -->
    <g transform="translate(398.718437 20.88) scale(0.12 -0.12)">
     <defs>
      <path id="DejaVuSans-53" d="M 3425 4513 
L 3425 3897 
Q 3066 4069 2747 4153 
Q 2428 4238 2131 4238 
Q 1616 4238 1336 4038 
Q 1056 3838 1056 3469 
Q 1056 3159 1242 3001 
Q 1428 2844 1947 2747 
L 2328 2669 
Q 3034 2534 3370 2195 
Q 3706 1856 3706 1288 
Q 3706 609 3251 259 
Q 2797 -91 1919 -91 
Q 1588 -91 1214 -16 
Q 841 59 441 206 
L 441 856 
Q 825 641 1194 531 
Q 1563 422 1919 422 
Q 2459 422 2753 634 
Q 3047 847 3047 1241 
Q 3047 1584 2836 1778 
Q 2625 1972 2144 2069 
L 1759 2144 
Q 1053 2284 737 2584 
Q 422 2884 422 3419 
Q 422 4038 858 4394 
Q 1294 4750 2059 4750 
Q 2388 4750 2728 4690 
Q 3069 4631 3425 4513 
z
" transform="scale(0.015625)"/>
      <path id="DejaVuSans-44" d="M 1259 4147 
L 1259 519 
L 2022 519 
Q 2988 519 3436 956 
Q 3884 1394 3884 2338 
Q 3884 3275 3436 3711 
Q 2988 4147 2022 4147 
L 1259 4147 
z
M 628 4666 
L 1925 4666 
Q 3281 4666 3915 4102 
Q 4550 3538 4550 2338 
Q 4550 1131 3912 565 
Q 3275 0 1925 0 
L 628 0 
L 628 4666 
z
" transform="scale(0.015625)"/>
      <path id="DejaVuSans-28" d="M 1984 4856 
Q 1566 4138 1362 3434 
Q 1159 2731 1159 2009 
Q 1159 1288 1364 580 
Q 1569 -128 1984 -844 
L 1484 -844 
Q 1016 -109 783 600 
Q 550 1309 550 2009 
Q 550 2706 781 3412 
Q 1013 4119 1484 4856 
L 1984 4856 
z
" transform="scale(0.015625)"/>
      <path id="DejaVuSans-47" d="M 3809 666 
L 3809 1919 
L 2778 1919 
L 2778 2438 
L 4434 2438 
L 4434 434 
Q 4069 175 3628 42 
Q 3188 -91 2688 -91 
Q 1594 -91 976 548 
Q 359 1188 359 2328 
Q 359 3472 976 4111 
Q 1594 4750 2688 4750 
Q 3144 4750 3555 4637 
Q 3966 4525 4313 4306 
L 4313 3634 
Q 3963 3931 3569 4081 
Q 3175 4231 2741 4231 
Q 1884 4231 1454 3753 
Q 1025 3275 1025 2328 
Q 1025 1384 1454 906 
Q 1884 428 2741 428 
Q 3075 428 3337 486 
Q 3600 544 3809 666 
z
" transform="scale(0.015625)"/>
      <path id="DejaVuSans-29" d="M 513 4856 
L 1013 4856 
Q 1481 4119 1714 3412 
Q 1947 2706 1947 2009 
Q 1947 1309 1714 600 
Q 1481 -109 1013 -844 
L 513 -844 
Q 928 -128 1133 580 
Q 1338 1288 1338 2009 
Q 1338 2731 1133 3434 
Q 928 4138 513 4856 
z
" transform="scale(0.015625)"/>
     </defs>
     <use xlink:href="#DejaVuSans-53"/>
     <use xlink:href="#DejaVuSans-74" transform="translate(63.476562 0)"/>
     <use xlink:href="#DejaVuSans-6f" transform="translate(102.685547 0)"/>
     <use xlink:href="#DejaVuSans-6e" transform="translate(163.867188 0)"/>
     <use xlink:href="#DejaVuSans-65" transform="translate(227.246094 0)"/>
     <use xlink:href="#DejaVuSans-20" transform="translate(288.769531 0)"/>
     <use xlink:href="#DejaVuSans-44" transform="translate(320.556641 0)"/>
     <use xlink:href="#DejaVuSans-61" transform="translate(397.558594 0)"/>
     <use xlink:href="#DejaVuSans-74" transform="translate(458.837891 0)"/>
     <use xlink:href="#DejaVuSans-61" transform="translate(498.046875 0)"/>
     <use xlink:href="#DejaVuSans-20" transform="translate(559.326172 0)"/>
     <use xlink:href="#DejaVuSans-28" transform="translate(591.113281 0)"/>
     <use xlink:href="#DejaVuSans-47" transform="translate(630.126953 0)"/>
     <use xlink:href="#DejaVuSans-79" transform="translate(707.617188 0)"/>
     <use xlink:href="#DejaVuSans-72" transform="translate(766.796875 0)"/>
     <use xlink:href="#DejaVuSans-6f" transform="translate(805.660156 0)"/>
     <use xlink:href="#DejaVuSans-29" transform="translate(866.841797 0)"/>
    </g>
   </g>
   <g id="legend_1">
    <g id="patch_7">
     <path d="M 779.185938 64.514375 
L 846.2 64.514375 
Q 848.2 64.514375 848.2 62.514375 
L 848.2 33.88 
Q 848.2 31.88 846.2 31.88 
L 779.185938 31.88 
Q 777.185938 31.88 777.185938 33.88 
L 777.185938 62.514375 
Q 777.185938 64.514375 779.185938 64.514375 
z
" style="fill: #ffffff; opacity: 0.8; stroke: #cccccc; stroke-linejoin: miter"/>
    </g>
    <g id="line2d_18">
     <path d="M 781.185938 39.978438 
L 791.185938 39.978438 
L 801.185938 39.978438 
" style="fill: none; stroke: #1f77b4; stroke-width: 1.5; stroke-linecap: square"/>
    </g>
    <g id="text_19">
     <!-- gz -->
     <g transform="translate(809.185938 43.478438) scale(0.1 -0.1)">
      <defs>
       <path id="DejaVuSans-7a" d="M 353 3500 
L 3084 3500 
L 3084 2975 
L 922 459 
L 3084 459 
L 3084 0 
L 275 0 
L 275 525 
L 2438 3041 
L 353 3041 
L 353 3500 
z
" transform="scale(0.015625)"/>
      </defs>
      <use xlink:href="#DejaVuSans-67"/>
      <use xlink:href="#DejaVuSans-7a" transform="translate(63.476562 0)"/>
     </g>
    </g>
    <g id="line2d_19">
     <path d="M 781.185938 54.656563 
L 791.185938 54.656563 
L 801.185938 54.656563 
" style="fill: none; stroke: #ff7f0e; stroke-width: 1.5; stroke-linecap: square"/>
    </g>
    <g id="text_20">
     <!-- gz_raw -->
     <g transform="translate(809.185938 58.156563) scale(0.1 -0.1)">
      <defs>
       <path id="DejaVuSans-77" d="M 269 3500 
L 844 3500 
L 1563 769 
L 2278 3500 
L 2956 3500 
L 3675 769 
L 4391 3500 
L 4966 3500 
L 4050 0 
L 3372 0 
L 2619 2869 
L 1863 0 
L 1184 0 
L 269 3500 
z
" transform="scale(0.015625)"/>
      </defs>
      <use xlink:href="#DejaVuSans-67"/>
      <use xlink:href="#DejaVuSans-7a" transform="translate(63.476562 0)"/>
      <use xlink:href="#DejaVuSans-5f" transform="translate(115.966797 0)"/>
      <use xlink:href="#DejaVuSans-72" transform="translate(165.966797 0)"/>
      <use xlink:href="#DejaVuSans-61" transform="translate(207.080078 0)"/>
      <use xlink:href="#DejaVuSans-77" transform="translate(268.359375 0)"/>
     </g>
    </g>
   </g>
  </g>
 </g>
 <defs>
  <clipPath id="p6ea95440e2">
   <rect x="52.94" y="26.88" width="800.26" height="363.05875"/>
  </clipPath>
 </defs>
</svg>
